<?xml version="1.0"?>
<svg xmlns="http://www.w3.org/2000/svg" viewBox="0 0 64 64" width="512" height="512"><g id="Setting"><path d="M47.81,19.674a1,1,0,0,0-.927.269L44.624,22.2A16.083,16.083,0,0,0,41.8,19.376l2.259-2.259a1,1,0,0,0-.371-1.649,7.927,7.927,0,0,0-7.464,1.112A15.829,15.829,0,0,0,23.592,18.4l-4.875-2.438a1,1,0,0,0-1.155.188l-1.409,1.41a1,1,0,0,0-.187,1.154L18.4,23.592A15.831,15.831,0,0,0,16.58,36.223a7.926,7.926,0,0,0-1.112,7.463,1,1,0,0,0,1.649.371L19.376,41.8A16.083,16.083,0,0,0,22.2,44.624l-2.259,2.259a1,1,0,0,0,.371,1.649,8.086,8.086,0,0,0,2.719.474,7.89,7.89,0,0,0,4.733-1.589,15.826,15.826,0,0,0,11.439-1.141l.866.866a5,5,0,0,0,7.071-7.071l-.866-.865A15.828,15.828,0,0,0,47.42,27.777a7.929,7.929,0,0,0,1.112-7.463A1,1,0,0,0,47.81,19.674ZM43.2,23.63l-.4.4-2.353-.473-.473-2.353.4-.4A14.093,14.093,0,0,1,43.2,23.63Zm-8.621-5.385a8,8,0,0,0-1.3,6.817L31.29,27.046l-4.957-4.957-1.2-2.264A14.1,14.1,0,0,1,34.575,18.245Zm-16.108-.168,4.683,2.341c.016.009.031.018.048.026l1.438,2.714a1.011,1.011,0,0,0,.176.239l5.064,5.063L28.46,29.876,23.4,24.813a1,1,0,0,0-.239-.177L20.441,23.2l-2.364-4.73Zm1.341,7.047,2.282,1.209,4.956,4.957-1.984,1.984a8,8,0,0,0-6.813,1.3,13.825,13.825,0,0,1,1.559-9.448Zm1,15.246.4-.4,2.353.473.473,2.353-.4.4A14.093,14.093,0,0,1,20.8,40.37Zm1.858,6.622,3.165-3.165a1,1,0,0,0,.274-.9l-.71-3.53a1,1,0,0,0-.784-.784l-3.53-.71a1,1,0,0,0-.9.274l-3.165,3.165A5.994,5.994,0,0,1,25,35.351a1,1,0,0,0,1.047-.234l9.07-9.07A1,1,0,0,0,35.351,25a5.995,5.995,0,0,1,5.987-7.993l-3.165,3.166a1,1,0,0,0-.274.9l.71,3.53a1,1,0,0,0,.784.784l3.53.71a1,1,0,0,0,.9-.274l3.165-3.165A5.994,5.994,0,0,1,39,28.649a1,1,0,0,0-1.047.234l-9.07,9.07A1,1,0,0,0,28.649,39a5.994,5.994,0,0,1-5.987,7.992ZM35.12,36.536l-1-1,1.416-1.416,1,1Zm-5.692,9.213a8,8,0,0,0,1.3-6.811l1.984-1.984,1,1L33,38.657a1,1,0,0,0,0,1.414l4.706,4.706A14.154,14.154,0,0,1,29.428,45.749Zm16.3-.021a3.073,3.073,0,0,1-4.243,0l-6.364-6.364,4.243-4.243,6.364,6.364a3,3,0,0,1,0,4.243ZM40.071,33a1,1,0,0,0-1.414,0l-.706.707-1-1,1.984-1.984a8.005,8.005,0,0,0,6.813-1.3,13.755,13.755,0,0,1-.975,8.278Z"/><path d="M61,26H55.231a23.691,23.691,0,0,0-2.556-6.19l4.072-4.073a1,1,0,0,0,0-1.414l-7.07-7.07a1,1,0,0,0-1.414,0l-4.074,4.073A23.631,23.631,0,0,0,38,8.77V3a1,1,0,0,0-1-1H27a1,1,0,0,0-1,1V8.77a23.631,23.631,0,0,0-6.189,2.556L15.737,7.253a1,1,0,0,0-1.414,0l-7.07,7.07a1,1,0,0,0,0,1.414l4.072,4.073A23.709,23.709,0,0,0,8.76,26H3a1,1,0,0,0-1,1V37a1,1,0,0,0,1,1H8.752a23.8,23.8,0,0,0,2.572,6.191L7.253,48.263a1,1,0,0,0,0,1.414l7.07,7.07a1,1,0,0,0,1.414,0l4.075-4.074A24.137,24.137,0,0,0,26,55.228V61a1,1,0,0,0,1,1H37a1,1,0,0,0,1-1V55.248a23.775,23.775,0,0,0,6.191-2.572l4.072,4.071a1,1,0,0,0,1.414,0l7.07-7.07a1,1,0,0,0,0-1.414l-4.074-4.075A24.16,24.16,0,0,0,55.229,38H61a1,1,0,0,0,1-1V27A1,1,0,0,0,61,26ZM60,36H54.44a1,1,0,0,0-.975.782,22.221,22.221,0,0,1-2.9,7.025,1,1,0,0,0,.139,1.24l3.923,3.923L48.97,54.626,45.047,50.7a1,1,0,0,0-1.246-.135,21.83,21.83,0,0,1-7.019,2.916A1,1,0,0,0,36,54.46V60H28V54.44a1,1,0,0,0-.783-.976,22.153,22.153,0,0,1-7.024-2.9,1,1,0,0,0-1.24.139L15.03,54.626,9.374,48.97,13.3,45.047a1,1,0,0,0,.136-1.246,21.787,21.787,0,0,1-2.917-7.019A1,1,0,0,0,9.54,36H4V28H9.55a1,1,0,0,0,.976-.785A21.77,21.77,0,0,1,13.434,20.2a1,1,0,0,0-.137-1.243L9.374,15.03,15.03,9.374,18.953,13.3a1,1,0,0,0,1.243.137,21.721,21.721,0,0,1,7.018-2.9A1,1,0,0,0,28,9.56V4h8V9.56a1,1,0,0,0,.786.977,21.721,21.721,0,0,1,7.018,2.9,1,1,0,0,0,1.243-.137L48.97,9.374l5.656,5.656L50.7,18.953a1,1,0,0,0-.137,1.243,21.736,21.736,0,0,1,2.9,7.018A1,1,0,0,0,54.44,28H60Z"/></g></svg>
